<svg version="1.1" id="Layer_1" xmlns="http://www.w3.org/2000/svg" xmlns:xlink="http://www.w3.org/1999/xlink" x="0px" y="0px" viewBox="0 0 342 99" style="enable-background:new 0 0 342 99;" xml:space="preserve">
    <style type="text/css">
        .st0{fill:#EF4538;}
        .st1{fill:#338BCB;}
    </style>
    <path class="st0" d="M6.4,40.1l13.6-13.3v7.5h11.5v6.5H19.9v17.9c0,4.2,1.7,6.3,5.2,6.3c2.6,0,5.3-0.9,8.2-2.6v6.7
        c-2.8,1.6-5.8,2.3-9.1,2.3c-3.3,0-6.1-1-8.3-2.9c-0.7-0.6-1.3-1.2-1.7-2c-0.4-0.7-0.8-1.7-1.1-2.9c-0.3-1.2-0.5-3.4-0.5-6.7V40.8H6.4V40.1z"/>
    <path class="st0" d="M60.7,70.8v-4.7c-1.5,1.7-3.3,3-5.3,3.9c-2,0.9-3.9,1.4-5.9,1.4c-2.3,0-4.4-0.6-6.4-1.7c-1.9-1.2-3.4-2.7-4.4-4.7c-1-2-1.5-5.2-1.5-9.8V34.3h7.2v20.8c0,3.8,0.5,6.5,1.6,8c1.1,1.5,3,2.3,5.8,2.3c3.4,0,6.4-1.7,8.8-5V34.3h7.2v36.5H60.7z"/>
    <path class="st0" d="M95.1,33.6c-3.5,0-7,1.8-10.5,7.4l-0.4,0.6v-7.4h-7.3v36.5h7.3V51.8c0-3,0.9-5.7,2.6-7.9c1.7-2.2,3.7-3.3,6-3.3c2.1,0,4.5,0,7,2.4v-8C98.2,34.1,96.6,33.6,95.1,33.6"/>
    <path class="st0" d="M112.2,34.3V39c3.2-3.6,6.9-5.4,11-5.4c2.3,0,4.4,0.6,6.3,1.8c2,1.2,3.4,2.8,4.5,4.8c1,2,1.5,5.3,1.5,9.7v20.9h-7.2V50.1c0-3.7-0.6-6.4-1.7-8c-1.1-1.6-3-2.4-5.7-2.4c-3.4,0-6.3,1.7-8.7,5.1v26.1h-7.4V34.3H112.2z"/>
    <path class="st1" d="M147.8,22.1c1.2,0,2.2,0.4,3.1,1.2c0.8,0.8,1.3,1.8,1.3,3c0,1.2-0.4,2.2-1.3,3c-0.8,0.8-1.9,1.3-3.1,1.3c-1.1,0-2.1-0.4-2.9-1.3c-0.8-0.9-1.3-1.9-1.3-3c0-1.1,0.4-2.1,1.3-3C145.7,22.5,146.7,22.1,147.8,22.1 M144.2,34.3h7.2v36.5h-7.2V34.3z"/>
    <path class="st1" d="M155.7,40.1l13.6-13.3v7.5h11.5v6.5h-11.5v17.9c0,4.2,1.7,6.3,5.2,6.3c2.6,0,5.3-0.9,8.2-2.6v6.7c-2.8,1.6-5.8,2.3-9.1,2.3c-3.3,0-6.1-1-8.3-2.9c-0.7-0.6-1.3-1.2-1.7-2c-0.4-0.7-0.8-1.7-1.1-2.9c-0.3-1.2-0.5-3.4-0.5-6.7V40.8h-6.4V40.1z"/>
    <path class="st0" d="M190.9,22.1c1.2,0,2.2,0.4,3.1,1.2c0.9,0.8,1.3,1.8,1.3,3c0,1.2-0.4,2.2-1.3,3c-0.9,0.8-1.9,1.3-3.1,1.3c-1.1,0-2.1-0.4-2.9-1.3c-0.8-0.9-1.3-1.9-1.3-3c0-1.1,0.4-2.1,1.3-3C188.8,22.5,189.7,22.1,190.9,22.1 M187.3,34.3h7.2v36.5h-7.2V34.3z"/>
    <path class="st0" d="M210.7,34.3V39c3.2-3.6,6.9-5.4,11-5.4c2.3,0,4.4,0.6,6.3,1.8c2,1.2,3.4,2.8,4.5,4.8c1,2,1.5,5.3,1.5,9.7v20.9h-7.2V50.1c0-3.7-0.6-6.4-1.7-8c-1.1-1.6-3-2.4-5.7-2.4c-3.4,0-6.3,1.7-8.7,5.1v26.1h-7.4V34.3H210.7z"/>
    <path class="st1" d="M249.7,46.1C255,33.5,258,19.6,258,5h50.2c0,23.5-5.2,45.8-14.6,65.8h-19.1L249.7,46.1z M274.4,65.4h16.1c7.4-16.9,11.8-35.4,12.5-54.9h-39.7c-0.6,12.6-3.3,24.5-7.8,35.6L274.4,65.4z"/>
    <path class="st0" d="M307.7,17c9-1.8,18.8,0.9,22.4,5.4c8,9.9,0.1,33.7-21.1,50.8C289.5,89,266.2,95,258.8,85.9c-5.1-6.3-1.3-18.8,5.2-25.4l10.4,10.4V46.1h-24.7l10.4,10.4c-8.8,8.8-12.8,23.3-5.7,32.8c2.2,2.9,5.5,4.6,9.3,5.5c11.6,2.7,29.8-3.9,45.9-16.9c23-18.6,32.9-43.4,23-55.5C327.7,16.3,318.5,14.7,307.7,17"/>
    <path class="st0" d="M234.1,28.7h0.7v-1.9h0.4c0.6,0,0.8,0.2,1.4,1.2l0.4,0.7h0.9l-0.6-0.9c-0.4-0.6-0.7-1-1.1-1.1v0c0.8,0,1.3-0.6,1.3-1.3c0-0.5-0.4-1.2-1.5-1.2h-2V28.7z M234.8,26.1v-1.4h1.2c0.5,0,0.8,0.3,0.8,0.7c0,0.5-0.4,0.7-0.9,0.7H234.8z M239.5,26.4c0,2-1.6,3.6-3.6,3.6c-2,0-3.6-1.6-3.6-3.6c0-2,1.6-3.6,3.6-3.6C237.9,22.8,239.5,24.4,239.5,26.4 M240.2,26.4c0-2.4-1.9-4.3-4.3-4.3c-2.4,0-4.3,1.9-4.3,4.3c0,2.4,1.9,4.3,4.3,4.3C238.3,30.6,240.2,28.7,240.2,26.4"/>
</svg>